<svg width="111" height="24" viewBox="0 0 111 24" fill="none" xmlns="http://www.w3.org/2000/svg">
<path d="M28.8586 16.2744L28.4657 14.7355C28.4563 14.7093 28.4352 14.695 28.3999 14.695H25.5017C25.457 14.695 25.4359 14.7093 25.4359 14.7355L25.0548 16.2744C25.0454 16.3529 24.9983 16.3933 24.9113 16.3933H23.888C23.8433 16.3933 23.8104 16.3791 23.7892 16.3529C23.768 16.3267 23.761 16.2911 23.7704 16.2459L26.1957 7.23101C26.2121 7.15252 26.2615 7.11208 26.3392 7.11208H27.5718C27.6495 7.11208 27.6989 7.15252 27.7153 7.23101L30.1547 16.2459L30.1689 16.2863C30.1689 16.3577 30.1242 16.3933 30.0371 16.3933H29.0021C28.9245 16.3933 28.8774 16.3529 28.8586 16.2744ZM25.7181 13.6675C25.7299 13.6817 25.7464 13.6865 25.7652 13.6865H28.1388C28.1552 13.6865 28.1717 13.6794 28.1858 13.6675C28.1976 13.6532 28.1999 13.6437 28.1929 13.6342L26.9743 8.83418C26.9649 8.81753 26.9579 8.80802 26.9484 8.80802C26.939 8.80802 26.932 8.81753 26.9226 8.83418L25.7158 13.6342C25.704 13.6437 25.7064 13.6556 25.7181 13.6675ZM34.5749 9.64528H35.5723C35.6593 9.64528 35.704 9.69047 35.704 9.77848V16.2601C35.704 16.3482 35.6593 16.3933 35.5723 16.3933H34.5749C34.4878 16.3933 34.4431 16.3482 34.4431 16.2601V15.8486C34.4431 15.832 34.4361 15.8177 34.4243 15.8082C34.4102 15.7987 34.3961 15.8035 34.3773 15.8201C34.0715 16.2625 33.5916 16.4837 32.9353 16.4837C32.3401 16.4837 31.8485 16.3077 31.4603 15.9533C31.0722 15.5989 30.8769 15.0875 30.8769 14.4144V9.77848C30.8769 9.69047 30.9216 9.64528 31.0087 9.64528H31.992C32.079 9.64528 32.1237 9.69047 32.1237 9.77848V14.0742C32.1237 14.4905 32.2225 14.8116 32.4177 15.0423C32.6153 15.273 32.8953 15.3872 33.2646 15.3872C33.6222 15.3872 33.9092 15.2659 34.1232 15.0233C34.3373 14.7807 34.4455 14.45 34.4455 14.0362V9.77848C34.4455 9.69047 34.4878 9.64528 34.5749 9.64528ZM39.8583 10.6253H38.6916C38.6563 10.6253 38.6398 10.6419 38.6398 10.6776V14.3097C38.6398 14.6712 38.7127 14.9258 38.8562 15.0708C38.9997 15.2159 39.2256 15.2897 39.5314 15.2897H39.7807C39.8678 15.2897 39.9124 15.3349 39.9124 15.4229V16.2578C39.9124 16.3458 39.8678 16.391 39.7807 16.391L39.2702 16.4052C38.6586 16.4052 38.1976 16.2887 37.887 16.0532C37.5765 15.8201 37.4213 15.3848 37.4213 14.7474V10.68C37.4213 10.6443 37.4048 10.6276 37.3695 10.6276H36.7273C36.6403 10.6276 36.5956 10.5824 36.5956 10.4944V9.77848C36.5956 9.69047 36.6379 9.64528 36.7273 9.64528H37.3695C37.4048 9.64528 37.4213 9.62863 37.4213 9.59295V8.06827C37.4213 7.98027 37.466 7.93507 37.553 7.93507H38.5104C38.5975 7.93507 38.6422 7.98027 38.6422 8.06827V9.59295C38.6422 9.62863 38.6586 9.64528 38.6939 9.64528H39.8607C39.9477 9.64528 39.9924 9.69047 39.9924 9.77848V10.4944C39.9901 10.5824 39.9477 10.6253 39.8583 10.6253ZM41.6556 15.9628C41.218 15.6037 40.9569 15.116 40.8699 14.4976C40.7993 14.0552 40.764 13.5604 40.764 13.0134C40.764 12.4568 40.7993 11.9668 40.8699 11.541C40.9569 10.9321 41.2204 10.4445 41.6556 10.0829C42.0931 9.7214 42.653 9.53824 43.3328 9.53824C44.0056 9.53824 44.5608 9.71902 44.9983 10.0829C45.4359 10.4445 45.697 10.9273 45.784 11.5291C45.8546 11.9097 45.8899 12.4044 45.8899 13.0134C45.8899 13.6223 45.8546 14.117 45.784 14.4976C45.697 15.116 45.4359 15.6037 45.003 15.9628C44.5702 16.3196 44.0127 16.5004 43.3305 16.5004C42.653 16.498 42.0931 16.3196 41.6556 15.9628ZM44.1538 15.0946C44.3773 14.8925 44.5137 14.6213 44.5678 14.2859C44.6125 13.8887 44.6337 13.4629 44.6337 13.0134C44.6337 12.5543 44.6125 12.1333 44.5678 11.7527C44.5161 11.4173 44.3773 11.1486 44.1538 10.944C43.9303 10.7418 43.6527 10.6395 43.3211 10.6395C42.9964 10.6395 42.7236 10.7418 42.5024 10.944C42.2789 11.1462 42.1425 11.4173 42.0884 11.7527C42.0531 12.0619 42.0367 12.4829 42.0367 13.0134C42.0367 13.5533 42.0531 13.9767 42.0884 14.2859C42.1402 14.6213 42.2789 14.8925 42.5024 15.0946C42.7259 15.2968 43.0035 15.3991 43.3352 15.3991C43.6574 15.3991 43.9303 15.2968 44.1538 15.0946ZM54.7725 10.1495C55.1089 10.5468 55.2782 11.101 55.2782 11.8074V16.2625C55.2782 16.3505 55.2335 16.3957 55.1465 16.3957H54.1632C54.0762 16.3957 54.0315 16.3505 54.0315 16.2625V11.9906C54.0315 11.5743 53.9327 11.2485 53.7374 11.0106C53.5398 10.7727 53.2717 10.6514 52.9306 10.6514C52.5895 10.6514 52.3166 10.768 52.1119 11.0035C51.9073 11.2389 51.8038 11.5577 51.8038 11.9644V16.2601C51.8038 16.3482 51.7591 16.3933 51.672 16.3933H50.6887C50.6017 16.3933 50.557 16.3482 50.557 16.2601V11.9906C50.557 11.5743 50.4558 11.2485 50.2559 11.0106C50.0559 10.7727 49.7878 10.6514 49.4561 10.6514C49.115 10.6514 48.8421 10.768 48.6375 11.0035C48.4328 11.2389 48.3293 11.5577 48.3293 11.9644V16.2601C48.3293 16.3482 48.2846 16.3933 48.1976 16.3933H47.2143C47.1272 16.3933 47.0825 16.3482 47.0825 16.2601V9.77848C47.0825 9.69047 47.1272 9.64528 47.2143 9.64528H48.1976C48.2846 9.64528 48.3293 9.69047 48.3293 9.77848V10.1757C48.3293 10.1924 48.3363 10.2066 48.3481 10.2161C48.3622 10.2257 48.3763 10.2209 48.3952 10.2019C48.7527 9.76897 49.2514 9.55252 49.8889 9.55252C50.2724 9.55252 50.6064 9.63101 50.8863 9.79037C51.1663 9.94974 51.3803 10.1828 51.5285 10.4921C51.5544 10.5277 51.5803 10.523 51.6062 10.4778C51.7991 10.1591 52.0508 9.92595 52.3589 9.7761C52.6694 9.62625 52.9988 9.55014 53.3493 9.55014C53.9633 9.55252 54.4361 9.74994 54.7725 10.1495ZM60.5876 10.1543C61.0251 10.5658 61.2439 11.101 61.2439 11.7646V16.2578C61.2439 16.3458 61.1992 16.391 61.1122 16.391H60.1147C60.0277 16.391 59.983 16.3458 59.983 16.2578V15.8724C59.983 15.8558 59.976 15.8439 59.9642 15.8391C59.9524 15.8344 59.936 15.8415 59.9171 15.8582C59.5243 16.2815 58.9785 16.4956 58.2775 16.4956C57.7083 16.4956 57.2237 16.3386 56.8214 16.0247C56.4191 15.7107 56.2192 15.204 56.2192 14.5071C56.2192 13.7817 56.4521 13.2322 56.9202 12.8564C57.3883 12.4806 58.0235 12.2927 58.828 12.2927H59.9289C59.9642 12.2927 59.9807 12.276 59.9807 12.2403V11.8693C59.9807 11.4887 59.8819 11.189 59.6866 10.9678C59.489 10.7466 59.2091 10.6372 58.8421 10.6372C58.5528 10.6372 58.3152 10.7109 58.127 10.856C57.9388 11.0011 57.8235 11.1985 57.7788 11.4459C57.7694 11.5244 57.7224 11.5648 57.6353 11.5648L56.5603 11.4982C56.525 11.4982 56.4944 11.4863 56.4685 11.4649C56.4427 11.4435 56.4333 11.415 56.4427 11.3793C56.4944 10.8322 56.7414 10.3874 57.1837 10.0473C57.6259 9.70712 58.1787 9.53586 58.8421 9.53586C59.569 9.53824 60.15 9.74518 60.5876 10.1543ZM59.5596 15.0804C59.8442 14.8592 59.9854 14.5642 59.9854 14.1931V13.344C59.9854 13.3083 59.9689 13.2917 59.9336 13.2917H58.9244C58.4963 13.2917 58.1529 13.3892 57.8964 13.5842C57.6377 13.7793 57.5107 14.0623 57.5107 14.4334C57.5107 14.7593 57.6071 15.0066 57.8 15.1684C57.9929 15.3325 58.247 15.4134 58.5598 15.4134C58.9409 15.411 59.2749 15.3016 59.5596 15.0804ZM65.243 10.6253H64.0762C64.0409 10.6253 64.0244 10.6419 64.0244 10.6776V14.3097C64.0244 14.6712 64.0973 14.9258 64.2408 15.0708C64.3843 15.2159 64.6102 15.2897 64.916 15.2897H65.1653C65.2524 15.2897 65.2971 15.3349 65.2971 15.4229V16.2578C65.2971 16.3458 65.2524 16.391 65.1653 16.391L64.6549 16.4052C64.0432 16.4052 63.5822 16.2887 63.2716 16.0532C62.9611 15.8201 62.8059 15.3848 62.8059 14.7474V10.68C62.8059 10.6443 62.7894 10.6276 62.7541 10.6276H62.1119C62.0249 10.6276 61.9802 10.5824 61.9802 10.4944V9.77848C61.9802 9.69047 62.0225 9.64528 62.1119 9.64528H62.7541C62.7894 9.64528 62.8059 9.62863 62.8059 9.59295V8.06827C62.8059 7.98027 62.8506 7.93507 62.9376 7.93507H63.895C63.9821 7.93507 64.0268 7.98027 64.0268 8.06827V9.59295C64.0268 9.62863 64.0432 9.64528 64.0785 9.64528H65.243C65.33 9.64528 65.3747 9.69047 65.3747 9.77848V10.4944C65.3723 10.5824 65.33 10.6253 65.243 10.6253ZM66.5791 8.47501C66.438 8.3323 66.3697 8.15153 66.3697 7.93032C66.3697 7.70197 66.4403 7.51882 66.5791 7.38086C66.7202 7.2429 66.899 7.17392 67.1178 7.17392C67.3366 7.17392 67.5154 7.24528 67.6565 7.38562C67.7976 7.52833 67.8659 7.70911 67.8659 7.93032C67.8659 8.15153 67.7929 8.3323 67.6494 8.47501C67.506 8.61773 67.3272 8.68671 67.1178 8.68671C66.899 8.68909 66.7202 8.61773 66.5791 8.47501ZM66.4756 16.2601V9.77848C66.4756 9.69047 66.5203 9.64528 66.6073 9.64528H67.6048C67.6918 9.64528 67.7365 9.69047 67.7365 9.77848V16.2601C67.7365 16.3482 67.6918 16.3933 67.6048 16.3933H66.6073C66.5179 16.3933 66.4756 16.3482 66.4756 16.2601ZM69.9101 15.9628C69.4725 15.6037 69.2114 15.116 69.1244 14.4976C69.0538 14.0552 69.0185 13.5604 69.0185 13.0134C69.0185 12.4568 69.0538 11.9668 69.1244 11.541C69.2114 10.9321 69.4749 10.4445 69.9101 10.0829C70.3476 9.7214 70.9075 9.53824 71.5873 9.53824C72.2601 9.53824 72.8153 9.71902 73.2528 10.0829C73.6904 10.4445 73.9515 10.9273 74.0385 11.5291C74.1091 11.9097 74.1444 12.4044 74.1444 13.0134C74.1444 13.6223 74.1091 14.117 74.0385 14.4976C73.9515 15.116 73.6904 15.6037 73.2575 15.9628C72.8247 16.3196 72.2672 16.5004 71.585 16.5004C70.9051 16.498 70.3476 16.3196 69.9101 15.9628ZM72.4083 15.0946C72.6318 14.8925 72.7682 14.6213 72.8223 14.2859C72.867 13.8887 72.8882 13.4629 72.8882 13.0134C72.8882 12.5543 72.867 12.1333 72.8223 11.7527C72.7706 11.4173 72.6318 11.1486 72.4083 10.944C72.1848 10.7418 71.9073 10.6395 71.5756 10.6395C71.2533 10.6395 70.9804 10.7418 70.7569 10.944C70.5335 11.1462 70.397 11.4173 70.3453 11.7527C70.31 12.0619 70.2935 12.4829 70.2935 13.0134C70.2935 13.5533 70.31 13.9767 70.3453 14.2859C70.397 14.6213 70.5358 14.8925 70.7569 15.0946C70.9804 15.2968 71.258 15.3991 71.5897 15.3991C71.912 15.3991 72.1848 15.2968 72.4083 15.0946ZM79.6443 10.1495C79.9995 10.5468 80.1759 11.0962 80.1759 11.7931V16.2601C80.1759 16.3482 80.1312 16.3933 80.0442 16.3933H79.0468C78.9597 16.3933 78.915 16.3482 78.915 16.2601V11.9787C78.915 11.5719 78.8115 11.2485 78.6069 11.0106C78.4022 10.7727 78.1246 10.6514 77.7741 10.6514C77.4165 10.6514 77.1296 10.7727 76.9155 11.0153C76.7014 11.258 76.5932 11.5838 76.5932 11.9906V16.2601C76.5932 16.3482 76.5485 16.3933 76.4615 16.3933H75.4641C75.377 16.3933 75.3323 16.3482 75.3323 16.2601V9.77848C75.3323 9.69047 75.377 9.64528 75.4641 9.64528H76.4615C76.5485 9.64528 76.5932 9.69047 76.5932 9.77848V10.19C76.5932 10.2161 76.6003 10.2328 76.612 10.2375C76.6261 10.2423 76.6403 10.2304 76.6591 10.2042C77.0002 9.77135 77.4989 9.55489 78.1528 9.55489C78.7951 9.55252 79.2914 9.74994 79.6443 10.1495ZM85.0736 16.1602C84.6501 15.9343 84.3208 15.6155 84.0903 15.2064C83.8574 14.7949 83.7421 14.3216 83.7421 13.7817V9.71188C83.7421 8.88889 83.9985 8.23478 84.509 7.74241C85.0218 7.25242 85.697 7.00742 86.5344 7.00742C87.3742 7.00742 88.047 7.25004 88.5527 7.73765C89.0585 8.22288 89.3126 8.86986 89.3126 9.67382V9.78086C89.3126 9.82605 89.3008 9.85935 89.2726 9.8879C89.2467 9.91406 89.2161 9.92833 89.1808 9.92833L88.1834 9.98066C88.0964 9.98066 88.0517 9.93547 88.0517 9.84746V9.64766C88.0517 9.18859 87.9129 8.81753 87.633 8.53448C87.353 8.25143 86.9861 8.11109 86.5321 8.11109C86.078 8.11109 85.7087 8.25143 85.4241 8.53448C85.1394 8.81753 84.9983 9.18859 84.9983 9.64766V13.8625C84.9983 14.3216 85.1394 14.6927 85.4241 14.9757C85.7087 15.2588 86.078 15.3991 86.5321 15.3991C86.9861 15.3991 87.353 15.2588 87.633 14.9757C87.9129 14.6927 88.0517 14.3216 88.0517 13.8625V13.677C88.0517 13.589 88.0964 13.5438 88.1834 13.5438L89.1808 13.5961C89.2679 13.5961 89.3126 13.6413 89.3126 13.7293V13.8221C89.3126 14.3525 89.1973 14.8211 88.9644 15.2278C88.7339 15.6346 88.4069 15.9485 87.9882 16.1698C87.5695 16.391 87.0825 16.5004 86.5321 16.5004C85.9816 16.5004 85.497 16.3862 85.0736 16.1602ZM90.4817 16.2601V7.24528C90.4817 7.15727 90.5264 7.11208 90.6134 7.11208H91.6085C91.6955 7.11208 91.7402 7.15727 91.7402 7.24528V16.2601C91.7402 16.3482 91.6955 16.3933 91.6085 16.3933H90.6134C90.5241 16.3933 90.4817 16.3482 90.4817 16.2601ZM93.7727 15.9628C93.3352 15.6037 93.074 15.116 92.987 14.4976C92.9164 14.0552 92.8811 13.5604 92.8811 13.0134C92.8811 12.4568 92.9164 11.9668 92.987 11.541C93.074 10.9321 93.3352 10.4445 93.7727 10.0829C94.2102 9.7214 94.7701 9.53824 95.45 9.53824C96.1227 9.53824 96.6779 9.71902 97.1154 10.0829C97.553 10.4445 97.8141 10.9273 97.9011 11.5291C97.9717 11.9097 98.007 12.4044 98.007 13.0134C98.007 13.6223 97.9717 14.117 97.9011 14.4976C97.8141 15.116 97.553 15.6037 97.1201 15.9628C96.6873 16.3196 96.1298 16.5004 95.4476 16.5004C94.7678 16.498 94.2079 16.3196 93.7727 15.9628ZM96.2686 15.0946C96.4921 14.8925 96.6285 14.6213 96.6826 14.2859C96.7273 13.8887 96.7485 13.4629 96.7485 13.0134C96.7485 12.5543 96.7273 12.1333 96.6826 11.7527C96.6308 11.4173 96.4921 11.1486 96.2686 10.944C96.0451 10.7418 95.7675 10.6395 95.4358 10.6395C95.1136 10.6395 94.8407 10.7418 94.6172 10.944C94.3937 11.1462 94.2573 11.4173 94.2032 11.7527C94.1679 12.0619 94.1514 12.4829 94.1514 13.0134C94.1514 13.5533 94.1679 13.9767 94.2032 14.2859C94.2549 14.6213 94.3937 14.8925 94.6172 15.0946C94.8407 15.2968 95.1183 15.3991 95.45 15.3991C95.7746 15.3991 96.0475 15.2968 96.2686 15.0946ZM102.832 9.64528H103.829C103.916 9.64528 103.961 9.69047 103.961 9.77848V16.2601C103.961 16.3482 103.916 16.3933 103.829 16.3933H102.832C102.745 16.3933 102.7 16.3482 102.7 16.2601V15.8486C102.7 15.832 102.693 15.8177 102.681 15.8082C102.669 15.7987 102.653 15.8035 102.636 15.8201C102.331 16.2625 101.851 16.4837 101.194 16.4837C100.599 16.4837 100.108 16.3077 99.7195 15.9533C99.3314 15.5989 99.1361 15.0875 99.1361 14.4144V9.77848C99.1361 9.69047 99.1808 9.64528 99.2679 9.64528H100.251C100.338 9.64528 100.383 9.69047 100.383 9.77848V14.0742C100.383 14.4905 100.482 14.8116 100.677 15.0423C100.875 15.273 101.154 15.3872 101.521 15.3872C101.879 15.3872 102.166 15.2659 102.38 15.0233C102.594 14.7807 102.702 14.45 102.702 14.0362V9.77848C102.7 9.69047 102.745 9.64528 102.832 9.64528ZM109.007 7.11208H110.004C110.091 7.11208 110.136 7.15727 110.136 7.24528V16.2601C110.136 16.3482 110.091 16.3933 110.004 16.3933H109.007C108.92 16.3933 108.875 16.3482 108.875 16.2601V15.8106C108.875 15.7939 108.866 15.7797 108.849 15.7702C108.83 15.7606 108.819 15.7654 108.809 15.7844C108.494 16.2625 108 16.5004 107.327 16.5004C106.786 16.5004 106.349 16.341 106.017 16.0223C105.685 15.7036 105.441 15.2136 105.283 14.5499C105.177 14.0909 105.125 13.5866 105.125 13.0395C105.125 12.4734 105.17 11.9692 105.257 11.5291C105.521 10.2042 106.231 9.54062 107.393 9.54062C107.734 9.54062 108.019 9.59771 108.245 9.71188C108.473 9.82605 108.659 9.99969 108.809 10.228C108.828 10.2471 108.842 10.2542 108.856 10.2542C108.868 10.2542 108.875 10.2399 108.875 10.2138V7.24528C108.875 7.15727 108.92 7.11208 109.007 7.11208ZM108.863 13.0134C108.863 12.3497 108.802 11.8455 108.68 11.503C108.602 11.2199 108.48 11.0058 108.32 10.8607C108.158 10.7156 107.946 10.6419 107.685 10.6419C107.17 10.6419 106.81 10.9202 106.61 11.4768C106.471 11.874 106.4 12.3878 106.4 13.0157C106.4 13.6508 106.457 14.1432 106.572 14.4881C106.756 15.097 107.122 15.4038 107.673 15.4038C108.179 15.4038 108.52 15.1089 108.696 14.5166C108.804 14.1575 108.863 13.658 108.863 13.0134ZM23.0106 2.97333C23.0106 3.37769 22.6859 3.70594 22.286 3.70594H18.5363C18.1082 3.70594 17.7624 3.35391 17.7624 2.92338C17.7624 2.55232 18.0188 2.24073 18.3622 2.16223C18.3599 2.13131 18.3575 2.10277 18.3575 2.07185C18.3575 1.28929 18.9856 0.654205 19.7596 0.654205C20.2912 0.654205 20.7523 0.951529 20.9898 1.39157C21.1263 1.31783 21.2815 1.27502 21.4462 1.27502C21.9755 1.27502 22.406 1.7103 22.406 2.24548C22.406 2.25024 22.406 2.25262 22.406 2.25738C22.7494 2.31208 23.0106 2.60941 23.0106 2.97333ZM8.92211 11.7242C8.92211 10.6229 8.03996 9.73091 6.95081 9.73091C5.86165 9.73091 4.97951 10.6229 4.97951 11.7242C4.97951 12.8255 5.86165 13.7174 6.95081 13.7174C8.03996 13.7174 8.92211 12.8255 8.92211 11.7242ZM21.1663 11.0629L16.6238 3.10653C16.3909 2.69742 15.9581 2.44528 15.49 2.44528H6.4027C5.93457 2.44528 5.50409 2.69742 5.26885 3.10653L0.728742 11.0629C0.495856 11.472 0.495856 11.9763 0.728742 12.3854L4.90893 19.7043C4.90893 19.7067 4.90893 19.7067 4.90893 19.7067C4.31613 19.8138 3.80566 20.1491 3.46927 20.6272C3.46927 20.6296 3.25756 20.8841 3.50221 21.0768C3.72333 21.248 3.93269 21.0078 3.9374 20.9983C4.21733 20.5844 4.66899 20.3037 5.19357 20.2681L5.44293 20.2514L5.47115 19.947C5.47586 19.8946 5.48056 19.8447 5.48762 19.7924C5.74403 18.1678 7.13429 17.007 8.71274 17.007C8.88211 17.007 9.05384 17.0213 9.22792 17.0475C10.4065 17.2377 11.3898 18.0607 11.792 19.2001L11.8908 19.4784L12.166 19.3809C12.5001 19.2619 12.8624 19.2286 13.2129 19.2857C14.3796 19.4736 15.1771 20.5844 14.9866 21.7904L14.9419 22.0425L15.1818 22.1234C15.5794 22.259 15.8828 22.542 16.0616 22.894C16.0616 22.894 16.1157 23.0344 16.3015 23.0344C16.4615 23.0344 16.5909 22.8917 16.5909 22.7156C16.5909 22.6157 16.5321 22.5254 16.5321 22.5254C16.318 22.1543 16.0004 21.8451 15.5958 21.6524C15.6146 21.4288 15.6029 21.2076 15.5676 20.9935C16.0051 20.9674 16.4027 20.7295 16.6238 20.3418L21.1663 12.3854C21.3992 11.9763 21.3992 11.472 21.1663 11.0629ZM3.31166 11.7242C3.31166 9.69047 4.94187 8.04449 6.95081 8.04449C8.9621 8.04449 10.5899 9.69285 10.5899 11.7242C10.5899 13.7579 8.95974 15.4038 6.95081 15.4038C4.94187 15.4062 3.31166 13.7579 3.31166 11.7242ZM14.9419 15.4062C12.9306 15.4062 11.3027 13.7579 11.3027 11.7265C11.3027 9.69285 12.9329 8.04687 14.9419 8.04687C16.9508 8.04687 18.581 9.69523 18.581 11.7265C18.581 13.7579 16.9508 15.4062 14.9419 15.4062ZM14.9419 9.73329C13.8527 9.73329 12.9706 10.6253 12.9706 11.7265C12.9706 12.8278 13.8527 13.7198 14.9419 13.7198C16.031 13.7198 16.9132 12.8278 16.9132 11.7265C16.9108 10.6253 16.0287 9.73329 14.9419 9.73329ZM14.9419 13.1323C14.1726 13.1323 13.5493 12.502 13.5493 11.7242C13.5493 10.9464 14.1726 10.316 14.9419 10.316C15.7111 10.316 16.3345 10.9464 16.3345 11.7242C16.3345 12.502 15.7111 13.1323 14.9419 13.1323Z" fill="#383838"/>
</svg>
